<svg xmlns:xlink="http://www.w3.org/1999/xlink" xmlns="http://www.w3.org/2000/svg" width="250.348" height="255.51" viewBox="0 0 250.348 255.51"><defs><style>.a{fill:#f26d46;}.b{fill:#231f20;}.c{fill:#fff;}.d{fill:#7fcaad;}.e{fill:#fe6d43;}</style></defs><g transform="translate(-24.152 -21.49)"><rect class="a" width="222.12" height="9.89" rx="4.73" transform="translate(261.37 276.5) rotate(180)"/><path class="b" d="M256.64,277H44a5.23,5.23,0,0,1-5.23-5.23v-.43A5.24,5.24,0,0,1,44,266.11H256.64a5.24,5.24,0,0,1,5.23,5.23v.43A5.23,5.23,0,0,1,256.64,277ZM44,267.11a4.24,4.24,0,0,0-4.23,4.23v.43A4.24,4.24,0,0,0,44,276H256.64a4.24,4.24,0,0,0,4.23-4.23v-.43a4.24,4.24,0,0,0-4.23-4.23Z"/><rect class="c" width="47" height="38" transform="translate(54.5 217.5)"/><path class="b" d="M101.5,256h-47a.5.5,0,0,1-.5-.5v-38a.5.5,0,0,1,.5-.5h47a.5.5,0,0,1,.5.5v38A.5.5,0,0,1,101.5,256ZM55,255h46V218H55Z"/><rect class="b" width="47.11" height="1" transform="translate(54.62 230.32)"/><rect class="b" width="47.11" height="1" transform="translate(54.62 243.32)"/><path class="c" d="M235.3,217.5l-1.8,6h-25l-1.8-6H183.5v38h73v-38Z"/><path class="b" d="M256.5,256h-73a.5.5,0,0,1-.5-.5v-38a.5.5,0,0,1,.5-.5h23.2a.49.49,0,0,1,.48.36l1.69,5.64h24.26l1.69-5.64a.49.49,0,0,1,.48-.36h21.2a.5.5,0,0,1,.5.5v38A.5.5,0,0,1,256.5,256ZM184,255h72V218H235.67L234,223.64a.49.49,0,0,1-.48.36h-25a.49.49,0,0,1-.48-.36L206.33,218H184Z"/><path class="c" d="M174.7,141.82v23a6.27,6.27,0,0,1-6.25,6.25H120a6.27,6.27,0,0,1-6.25-6.25v-23"/><path class="b" d="M168.45,171.61H120a6.76,6.76,0,0,1-6.75-6.75v-23a.5.5,0,0,1,1,0v23a5.76,5.76,0,0,0,5.75,5.75h48.48a5.76,5.76,0,0,0,5.75-5.75v-23a.5.5,0,0,1,1,0v23a6.76,6.76,0,0,1-6.78,6.75Z"/><path class="b" d="M121.55,171.61a.5.5,0,0,1-.5-.5V158.34a.51.51,0,0,1,.5-.5.5.5,0,0,1,.5.5v12.77A.5.5,0,0,1,121.55,171.61Z"/><path class="b" d="M128.59,171.61a.5.5,0,0,1-.5-.5v-5.68a.5.5,0,0,1,.5-.5.51.51,0,0,1,.5.5v5.68A.5.5,0,0,1,128.59,171.61Z"/><path class="b" d="M161.5,171.61a.5.5,0,0,1-.5-.5v-5.68a.51.51,0,0,1,.5-.5.5.5,0,0,1,.5.5v5.68A.5.5,0,0,1,161.5,171.61Z"/><path class="b" d="M167.54,171.61a.5.5,0,0,1-.5-.5V158.34a.5.5,0,0,1,.5-.5.51.51,0,0,1,.5.5v12.77A.5.5,0,0,1,167.54,171.61Z"/><path class="a" d="M132.51,172.95l4.9-1.63v-7.56h13.37v7.56l4.9,1.63"/><path class="b" d="M155.52,173.42l-4.9-1.63a.51.51,0,0,1-.34-.47v-7.06H137.9v7.06a.49.49,0,0,1-.34.47l-4.89,1.63-.32-.95L136.9,171v-7.2a.51.51,0,0,1,.5-.5h13.38a.51.51,0,0,1,.5.5V171l4.55,1.51Z"/><path class="a" d="M132.51,173l-10.74,3.58s-6,.52-7.55,9.64l-2.35,26.31s-2.6,7.82,5.21,9.38a7.49,7.49,0,0,0,8.6-3.39l.26,10.68a21.34,21.34,0,0,0-10.13,10.07h56.56a21.34,21.34,0,0,0-10.13-10.07l.26-10.68a7.49,7.49,0,0,0,8.6,3.39c7.82-1.56,5.21-9.38,5.21-9.38L174,186.17c-1.57-9.12-7.56-9.64-7.56-9.64L155.67,173"/><path class="b" d="M172.37,239.72H115.81a.5.5,0,0,1-.45-.72,22.07,22.07,0,0,1,10.07-10.17l-.21-8.91a8,8,0,0,1-8.3,2.41,7.06,7.06,0,0,1-5-3.26c-1.62-2.78-.66-6.18-.5-6.69l2.34-26.26c1.55-9,7.24-10,8-10.08l10.68-3.57.32.95L121.93,177h-.11c-.23,0-5.64.63-7.11,9.22l-2.34,26.27a.5.5,0,0,1,0,.12s-1.09,3.38.4,5.94a6.2,6.2,0,0,0,4.43,2.79,7,7,0,0,0,8.08-3.17.5.5,0,0,1,.92.26l.26,10.68a.5.5,0,0,1-.32.48,20.85,20.85,0,0,0-9.48,9.1h54.9a20.76,20.76,0,0,0-9.48-9.1.51.51,0,0,1-.32-.48l.26-10.68a.51.51,0,0,1,.37-.47.5.5,0,0,1,.55.21,6.94,6.94,0,0,0,8,3.19,6.26,6.26,0,0,0,4.5-2.82c1.49-2.57.41-5.9.39-5.93s0-.08,0-.12l-2.34-26.31c-1.47-8.55-6.88-9.16-7.1-9.18h-.12l-10.73-3.58.31-.95L166.52,176c.71.08,6.4,1.05,7.94,10l2.34,26.3c.16.51,1.12,3.91-.5,6.7a7.16,7.16,0,0,1-5.1,3.27,8,8,0,0,1-8.23-2.43l-.22,8.91A22.07,22.07,0,0,1,172.82,239a.48.48,0,0,1,0,.48A.5.5,0,0,1,172.37,239.72Z"/><path class="c" d="M155.67,173l-4.89-1.63V157.11H137.4v14.21L132.51,173S144.13,189,155.67,173Z"/><path class="b" d="M144.54,180.58c-7,0-12.22-7-12.44-7.34a.49.49,0,0,1-.07-.44.52.52,0,0,1,.32-.33L136.9,171V157.11a.5.5,0,0,1,.5-.5h13.38a.5.5,0,0,1,.5.5V171l4.55,1.51a.53.53,0,0,1,.32.32.51.51,0,0,1-.07.45c-3.5,4.87-7.38,7.34-11.53,7.34Zm-11.2-7.38c1.36,1.63,5.77,6.38,11.2,6.38h0c3.65,0,7.11-2.15,10.3-6.37l-4.24-1.42a.51.51,0,0,1-.34-.47V157.61H137.9v13.71a.49.49,0,0,1-.34.47Z"/><path class="b" d="M123.9,213.21a.5.5,0,0,1-.5-.5V194.5a.5.5,0,0,1,1,0v18.21a.5.5,0,0,1-.5.5Z"/><path class="b" d="M164.67,213.21a.51.51,0,0,1-.5-.5V194.5a.51.51,0,0,1,.5-.5.5.5,0,0,1,.5.5v18.21a.5.5,0,0,1-.5.5Z"/><path class="c" d="M117.46,141.48a7.39,7.39,0,0,1-5.74-13.55"/><path class="b" d="M115.25,142.32a7.9,7.9,0,0,1-3.77-14.83.5.5,0,0,1,.48.88A6.9,6.9,0,0,0,117.32,141a.49.49,0,0,1,.62.32.5.5,0,0,1-.33.63,7.73,7.73,0,0,1-2.36.37Z"/><path class="c" d="M171.24,141.57a7.4,7.4,0,0,0,5.46-13.64"/><path class="b" d="M173.13,142.32a7.79,7.79,0,0,1-2-.27.49.49,0,0,1-.35-.61.5.5,0,0,1,.61-.36,6.89,6.89,0,0,0,5.09-12.71.5.5,0,1,1,.48-.88,7.86,7.86,0,0,1,3.65,9.58A8,8,0,0,1,173.13,142.32Z"/><path class="c" d="M117.39,109.51v31a24.26,24.26,0,0,0,24.19,24.18h5.26A24.26,24.26,0,0,0,171,140.5V109.4"/><path class="b" d="M146.84,165.18h-5.26a24.71,24.71,0,0,1-24.69-24.68v-31h1v31a23.71,23.71,0,0,0,23.69,23.68h5.26a23.71,23.71,0,0,0,23.69-23.68V109.4h1v31.1a24.71,24.71,0,0,1-24.69,24.68Z"/><path class="c" d="M127,91.51a33.25,33.25,0,0,0-9.69,48.05V116.08s9.24,10.16,33.73,9.46l-6.43-8.7s11.53,9,26.33,10.36v12.48a33.24,33.24,0,0,0-9.6-48.17A35.168,35.168,0,0,0,127,91.51Z"/><path class="b" d="M171,140.18a.41.41,0,0,1-.16,0,.49.49,0,0,1-.34-.47v-12c-10.57-1.11-19.51-6.05-23.66-8.7l4.66,6.3a.47.47,0,0,1,0,.51.48.48,0,0,1-.43.28c-20.6.57-30.43-6.34-33.25-8.79v22.31a.51.51,0,0,1-.34.48.52.52,0,0,1-.56-.18,33.75,33.75,0,0,1,9.83-48.78h0c18.24-10.18,34.69-.09,34.86,0A33.75,33.75,0,0,1,171.39,140,.52.52,0,0,1,171,140.18Zm-26.34-23.84a.51.51,0,0,1,.31.11c.11.09,11.6,8.89,26.07,10.25a.51.51,0,0,1,.46.5v10.89a32.75,32.75,0,0,0-10.37-46.15c-.16-.1-16.13-9.87-33.83,0a32.75,32.75,0,0,0-10.44,46V116.08a.5.5,0,0,1,.32-.46.51.51,0,0,1,.55.13c.09.1,9.17,9.7,32.39,9.31l-5.86-7.92a.49.49,0,0,1,.05-.65.5.5,0,0,1,.34-.15Z"/><path class="c" d="M150.81,111.6a32.37,32.37,0,0,0,17.72,8.69"/><path class="b" d="M168.53,120.79h-.07a32.58,32.58,0,0,1-18-8.83.5.5,0,0,1,0-.71.49.49,0,0,1,.7,0,32.21,32.21,0,0,0,17.42,8.53.49.49,0,0,1,.43.56A.5.5,0,0,1,168.53,120.79Z"/><path class="c" d="M164,111.6a12.48,12.48,0,0,0,4.52,1.74"/><path class="b" d="M168.53,113.84h-.07a12.7,12.7,0,0,1-4.72-1.81.49.49,0,0,1-.14-.69.48.48,0,0,1,.69-.14,11.94,11.94,0,0,0,4.31,1.65.51.51,0,0,1,.42.57A.5.5,0,0,1,168.53,113.84Z"/><path class="b" d="M144.31,150.8h0a2.83,2.83,0,0,1-1.94-1,.49.49,0,0,1,.07-.7.5.5,0,0,1,.7.07,1.87,1.87,0,0,0,1.18.63h0a1.57,1.57,0,0,0,1.13-.64.5.5,0,0,1,.75.65,2.46,2.46,0,0,1-1.89.99Z"/><path class="b" d="M144.17,159.31h-.11a10.38,10.38,0,0,1-6.71-3,.5.5,0,1,1,.72-.69,9.55,9.55,0,0,0,6,2.69h.08a8.22,8.22,0,0,0,5.79-2.7.48.48,0,0,1,.7,0,.5.5,0,0,1,0,.71,9.16,9.16,0,0,1-6.47,2.99Z"/><rect class="a" width="7.03" height="4.78" rx="2.28" transform="translate(120.1 144.38)"/><rect class="a" width="7.03" height="4.78" rx="2.28" transform="translate(161.29 144.38)"/><ellipse class="b" cx="2" cy="2.91" rx="2" ry="2.91" transform="translate(129.21 140.73)"/><ellipse class="b" cx="2" cy="2.91" rx="2" ry="2.91" transform="translate(154.6 140.73)"/><rect class="c" width="11.98" height="29.32" rx="5.73" transform="translate(109.575 213.655) rotate(-30)"/><path class="b" d="M126.36,237.46a6,6,0,0,1-1.63-.22,6.18,6.18,0,0,1-3.79-2.89L112,218.88a6.23,6.23,0,0,1,2.28-8.51l.45-.27a6.24,6.24,0,0,1,8.51,2.28l8.94,15.48a6.25,6.25,0,0,1-2.28,8.51h0l-.46.26a6.15,6.15,0,0,1-3.08.83Zm-8.51-27.19a5.24,5.24,0,0,0-2.61.7l-.45.26a5.25,5.25,0,0,0-1.91,7.15l8.93,15.47a5.23,5.23,0,0,0,7.14,1.91l.46-.26a5.24,5.24,0,0,0,1.91-7.14l-8.93-15.48a5.25,5.25,0,0,0-4.54-2.61Zm11.81,25.66Z"/><path class="c" d="M140.33,235.68a8.84,8.84,0,0,0-8.86-8.76h0a8.83,8.83,0,0,0-8.75,8.86Z"/><path class="b" d="M122.72,236.28a.51.51,0,0,1-.5-.5,9.32,9.32,0,0,1,9.25-9.36h.06a9.34,9.34,0,0,1,9.3,9.25.51.51,0,0,1-.5.51Zm8.81-8.86h-.05a8.33,8.33,0,0,0-8.25,7.85l16.58-.09a8.33,8.33,0,0,0-8.28-7.76Z"/><rect class="c" width="11.98" height="29.32" rx="5.73" transform="translate(163.542 238.298) rotate(-150)"/><path class="b" d="M161.42,236.69a6.21,6.21,0,0,1-3.1-.83l-.45-.26h0a6.23,6.23,0,0,1-2.28-8.51l8.93-15.47a6.23,6.23,0,0,1,8.51-2.28l.45.26a6.24,6.24,0,0,1,2.28,8.51l-8.93,15.47a6.17,6.17,0,0,1-3.78,2.9A6.51,6.51,0,0,1,161.42,236.69Zm-3-2,.45.27a5.26,5.26,0,0,0,7.15-1.92l8.93-15.47a5.25,5.25,0,0,0-1.92-7.14l-.45-.26a5.23,5.23,0,0,0-7.14,1.91l-8.94,15.47a5.23,5.23,0,0,0,1.92,7.14Z"/><path class="c" d="M147.45,235.68a8.83,8.83,0,0,1,8.85-8.76h0a8.83,8.83,0,0,1,8.75,8.86Z"/><path class="b" d="M165.05,236.28h0l-17.61-.1a.5.5,0,0,1-.49-.51,9.21,9.21,0,0,1,2.76-6.55,9.5,9.5,0,0,1,6.59-2.7,9.32,9.32,0,0,1,9.25,9.36.47.47,0,0,1-.15.35.51.51,0,0,1-.35.15ZM148,235.18l16.58.09a8.32,8.32,0,0,0-8.24-7.85h-.05a8.35,8.35,0,0,0-8.29,7.76Z"/><rect class="c" width="246.06" height="15.89" rx="7.6" transform="translate(273.84 271.5) rotate(180)"/><path class="b" d="M266.24,272H35.37a8.11,8.11,0,0,1-8.1-8.1v-.69a8.12,8.12,0,0,1,8.1-8.1H266.24a8.11,8.11,0,0,1,8.1,8.1v.69A8.1,8.1,0,0,1,266.24,272ZM35.37,256.11a7.11,7.11,0,0,0-7.1,7.1v.69a7.11,7.11,0,0,0,7.1,7.1H266.24a7.11,7.11,0,0,0,7.1-7.1v-.69a7.11,7.11,0,0,0-7.1-7.1Z"/><path class="c" d="M97.76,247.1H189a8.17,8.17,0,0,1-8.17,8.17h-74.9a8.17,8.17,0,0,1-8.17-8.17Z"/><path class="b" d="M178.83,255.77h-70.9c-6.58,0-10.67-3.32-10.67-8.67a.51.51,0,0,1,.5-.5H189a.51.51,0,0,1,.35.15.47.47,0,0,1,.15.35C189.5,252.45,185.41,255.77,178.83,255.77ZM98.28,247.6c.24,4.5,3.81,7.17,9.65,7.17h70.9c5.84,0,9.41-2.67,9.66-7.17Z"/><rect class="c" width="83.24" height="55.56" rx="3.71" transform="translate(101.76 191.67)"/><path class="b" d="M181.29,247.73H105.47a4.21,4.21,0,0,1-4.21-4.2V195.38a4.22,4.22,0,0,1,4.21-4.21h75.82a4.22,4.22,0,0,1,4.21,4.21v48.15a4.21,4.21,0,0,1-4.21,4.2Zm-75.82-55.56a3.21,3.21,0,0,0-3.21,3.21v48.15a3.21,3.21,0,0,0,3.21,3.2h75.82a3.21,3.21,0,0,0,3.21-3.2V195.38a3.21,3.21,0,0,0-3.21-3.21Z"/><circle class="d" cx="6.38" cy="6.38" r="6.38" transform="translate(137 216.49)"/><path class="b" d="M143.38,229.75a6.88,6.88,0,1,1,6.88-6.88,6.88,6.88,0,0,1-6.88,6.88Zm0-12.75a5.88,5.88,0,1,0,5.88,5.87A5.88,5.88,0,0,0,143.38,217Z"/><path class="b" d="M88.5,260.58h-60a.5.5,0,0,1-.5-.5.51.51,0,0,1,.5-.5h60a.5.5,0,0,1,0,1Z"/><path class="b" d="M59.5,266.57H28a.5.5,0,0,1,0-1H59.5a.5.5,0,0,1,0,1Z"/><line class="c" x1="60.02" transform="translate(214 266.07)"/><path class="b" d="M274,266.57H214a.5.5,0,0,1,0-1h60a.5.5,0,0,1,0,1Z"/><line class="c" x1="31.5" transform="translate(241 260.09)"/><path class="b" d="M272.5,260.58H241a.5.5,0,0,1,0-1h31.5a.5.5,0,0,1,0,1Z"/><path class="b" d="M153.5,264.58h-30a.5.5,0,0,1-.5-.5.51.51,0,0,1,.5-.5h30a.5.5,0,0,1,0,1Z"/><path class="b" d="M193.5,261.58h-12a.5.5,0,0,1-.5-.5.51.51,0,0,1,.5-.5h12a.5.5,0,0,1,0,1Z"/><path class="c" d="M246.43,252.96H234.25l-2.73-15.79H249.3Z"/><path class="b" d="M246.43,253.46H234.25a.49.49,0,0,1-.49-.41L231,237.26a.54.54,0,0,1,.11-.41.53.53,0,0,1,.38-.18H249.3a.49.49,0,0,1,.38.18.48.48,0,0,1,.11.41l-2.87,15.79A.49.49,0,0,1,246.43,253.46Zm-11.76-1H246l2.69-14.79H232.12Z"/><rect class="a" width="19.43" height="2.78" transform="translate(230.7 252.96)"/><path class="b" d="M250.13,256.25H230.7a.5.5,0,0,1-.5-.5V253a.5.5,0,0,1,.5-.5h19.43a.51.51,0,0,1,.5.5v2.79A.51.51,0,0,1,250.13,256.25Zm-18.93-1h18.43v-1.79H231.2Z"/><path class="d" d="M238.51,237.17s-8.77-14.62-5.62-39.67c0,0,7.23,9.78,9.72,39.67Z"/><path class="b" d="M242.61,237.67h-4.1a.51.51,0,0,1-.43-.24c-.09-.15-8.82-15.06-5.68-40a.49.49,0,0,1,.37-.42.47.47,0,0,1,.52.19c.3.4,7.34,10.23,9.81,39.92a.45.45,0,0,1-.13.38A.48.48,0,0,1,242.61,237.67Zm-3.81-1h3.26c-2-23.36-7-34.28-8.84-37.67C230.82,221,237.73,234.71,238.8,236.67Z"/><path class="d" d="M243,237.17s7-11.66,4.48-31.64c0,0-5.76,7.8-7.75,31.64Z"/><path class="b" d="M243,237.67h-3.27a.48.48,0,0,1-.36-.16.45.45,0,0,1-.13-.38c2-23.71,7.6-31.57,7.84-31.89a.5.5,0,0,1,.9.23c2.5,19.92-4.48,31.84-4.55,32A.5.5,0,0,1,243,237.67Zm-2.72-1h2.43c.92-1.72,6.24-12.46,4.45-29.61-1.6,2.94-5.34,11.68-6.89,29.61Z"/><rect class="c" width="17.78" height="21.68" transform="translate(85.38 233.84)"/><path class="b" d="M103.17,256H85.38a.5.5,0,0,1-.5-.5V233.84a.5.5,0,0,1,.5-.5h17.79a.5.5,0,0,1,.5.5v21.68A.5.5,0,0,1,103.17,256Zm-17.29-1h16.79V234.34H85.88Z"/><path class="c" d="M82.1,219.28l13.55,33a1.79,1.79,0,0,0,2.33,1h0a1.79,1.79,0,0,0,1-2.33l-13.54-33L82,214.33Z"/><path class="b" d="M97.31,253.85a2.32,2.32,0,0,1-.89-.18,2.24,2.24,0,0,1-1.23-1.24l-13.55-33a1.161,1.161,0,0,1,0-.18l-.1-4.95a.52.52,0,0,1,.31-.48.51.51,0,0,1,.55.12l3.41,3.6a.4.4,0,0,1,.1.15l13.55,33a2.29,2.29,0,0,1-1.25,3,2.35,2.35,0,0,1-.9.16ZM82.6,219.17l13.51,32.88a1.285,1.285,0,1,0,2.38-.97L85,218.2l-2.45-2.59Z"/><rect class="b" width="3.57" height="1" transform="translate(82.236 219.622) rotate(-22.36)"/><rect class="b" width="3.57" height="1" transform="translate(94.651 249.821) rotate(-22.36)"/><path class="c" d="M104.81,217.07,92.85,253a1.8,1.8,0,0,1-2.26,1.14h0a1.81,1.81,0,0,1-1.14-2.26l12-35.94.24-.24a1.82,1.82,0,0,1,3.1,1Z"/><path class="b" d="M91.15,254.74a2.29,2.29,0,0,1-2.17-3l12-35.94a.62.62,0,0,1,.12-.19l.24-.25a2.31,2.31,0,0,1,4,1.28V217a.36.36,0,0,1,0,.23l-12,35.94a2.29,2.29,0,0,1-2.19,1.57Zm10.71-38.52L89.93,252.05a1.29,1.29,0,0,0,.07,1,1.25,1.25,0,0,0,.75.64,1.28,1.28,0,0,0,1.62-.81L104.3,217v-.25a1.32,1.32,0,0,0-2.24-.72Z"/><path class="d" d="M92,244.41l-2.5,7.48a1.81,1.81,0,0,0,1.14,2.26h0A1.8,1.8,0,0,0,92.85,253l2.49-7.49"/><path class="b" d="M91.15,254.74a2.29,2.29,0,0,1-2.17-3l2.49-7.49,1,.32-2.49,7.48a1.29,1.29,0,0,0,.07,1,1.25,1.25,0,0,0,.75.64,1.28,1.28,0,0,0,1.62-.81l2.5-7.5.95.31-2.5,7.5a2.29,2.29,0,0,1-2.22,1.55Z"/><rect class="b" width="1" height="3.57" transform="matrix(0.313, -0.95, 0.95, 0.313, 91.919, 244.843)"/><rect class="b" width="1" height="3.57" transform="translate(98.329 225.533) rotate(-71.72)"/><path class="b" d="M96.25,224.9H96.1a.51.51,0,0,1-.33-.63l2.4-7.52a.49.49,0,0,1,.65-.31l2.2.83a.51.51,0,0,1,.28.65.49.49,0,0,1-.64.29l-1.7-.65-2.23,7a.5.5,0,0,1-.48.34Z"/><rect class="c" width="21.33" height="3.54" transform="translate(83.61 230.3)"/><path class="b" d="M104.94,234.34H83.61a.5.5,0,0,1-.5-.5V230.3a.5.5,0,0,1,.5-.5h21.33a.5.5,0,0,1,.5.5v3.54A.5.5,0,0,1,104.94,234.34Zm-20.83-1h20.33V230.8H84.11Z"/><path class="e" d="M217.6,73.91a22.64,22.64,0,1,1,22.9-22.64,22.64,22.64,0,0,1-22.9,22.64Zm0-44.27a21.63,21.63,0,1,0,21.9,21.63,21.63,21.63,0,0,0-21.9-21.63Z"/><path class="e" d="M228,62H206.71V41a.51.51,0,1,1,1,0V61H228a.51.51,0,0,1,0,1Z"/><path class="e" d="M212.54,56.16a.52.52,0,0,1-.21,0,.51.51,0,0,1-.25-.67l3.26-7.14,7.45,1.25,2.21-6a.51.51,0,0,1,.95.35l-2.5,6.79-7.52-1.26L213,55.87a.49.49,0,0,1-.46.29Z"/><path class="c" d="M213.77,55a1.36,1.36,0,0,1-.58,1.87,1.41,1.41,0,0,1-1.89-.57,1.38,1.38,0,0,1,.58-1.87,1.4,1.4,0,0,1,1.89.57Z"/><path class="e" d="M212.54,57.55a1.91,1.91,0,0,1-1.68-1,1.83,1.83,0,0,1-.14-1.43,1.9,1.9,0,0,1,3.5-.33,1.83,1.83,0,0,1,.14,1.43,1.9,1.9,0,0,1-1.82,1.34Zm0-2.77a.89.89,0,0,0-.86.63.85.85,0,0,0,.06.66.91.91,0,0,0,1.22.37.9.9,0,0,0,.44-.52.92.92,0,0,0-.07-.67h0a.89.89,0,0,0-.79-.47Z"/><path class="c" d="M216.87,48.23a1.38,1.38,0,0,1-.58,1.87,1.41,1.41,0,0,1-1.89-.58,1.38,1.38,0,0,1,.58-1.87,1.4,1.4,0,0,1,1.89.58Z"/><path class="e" d="M215.64,50.76a1.89,1.89,0,0,1-1.83-2.44,1.85,1.85,0,0,1,.94-1.11,1.89,1.89,0,0,1,2.71,2.21,1.92,1.92,0,0,1-1.82,1.34Zm0-2.77a.94.94,0,0,0-.42.11.83.83,0,0,0-.43.52.84.84,0,0,0,.06.66.9.9,0,0,0,1.22.37.89.89,0,0,0,.43-.52.87.87,0,0,0-.06-.67h0a.9.9,0,0,0-.81-.46Z"/><path class="c" d="M224.35,49.48a1.36,1.36,0,0,1-.58,1.87,1.4,1.4,0,0,1-1.89-.58,1.38,1.38,0,0,1,.58-1.87,1.41,1.41,0,0,1,1.89.58Z"/><path class="e" d="M223.12,52a1.9,1.9,0,0,1-1.68-1,1.83,1.83,0,0,1-.14-1.43,1.85,1.85,0,0,1,.93-1.12,1.91,1.91,0,0,1,2.57.78,1.87,1.87,0,0,1-.79,2.55,1.92,1.92,0,0,1-.89.22Zm0-2.76a.88.88,0,0,0-.8,1.29.91.91,0,0,0,1.22.36.87.87,0,0,0,.44-.52.89.89,0,0,0-.07-.66h0a.89.89,0,0,0-.79-.46Z"/><path class="c" d="M226.71,43.08a1.38,1.38,0,0,1-.58,1.87,1.4,1.4,0,0,1-1.89-.58,1.38,1.38,0,0,1,.58-1.87,1.41,1.41,0,0,1,1.89.58Z"/><path class="e" d="M225.48,45.61a1.88,1.88,0,0,1-1.83-2.43,1.84,1.84,0,0,1,.94-1.12,1.92,1.92,0,0,1,2.57.78h0a1.9,1.9,0,0,1,.13,1.44,1.8,1.8,0,0,1-.93,1.11A1.85,1.85,0,0,1,225.48,45.61Zm0-2.76a.92.92,0,0,0-.42.1.85.85,0,0,0-.43.52.84.84,0,0,0,.06.66.9.9,0,0,0,1.22.37.86.86,0,0,0,.43-.52.84.84,0,0,0-.06-.66h0a.9.9,0,0,0-.81-.47Z"/><path class="e" d="M191.2,88.61a2.77,2.77,0,1,1,2.8-2.77A2.77,2.77,0,0,1,191.2,88.61Zm0-4.54a1.77,1.77,0,1,0,1.8,1.77,1.79,1.79,0,0,0-1.8-1.77Z"/><path class="e" d="M198.5,81a4.5,4.5,0,1,1,4.5-4.5A4.5,4.5,0,0,1,198.5,81Zm0-8a3.5,3.5,0,1,0,3.5,3.5A3.5,3.5,0,0,0,198.5,73Z"/><path class="e" d="M92.07,55.3H77.77A1.32,1.32,0,0,1,76.46,54V44.83a6,6,0,0,1,2.4-11.53,5.88,5.88,0,0,1,1.45.18,6,6,0,0,1,9.27,0A5.88,5.88,0,0,1,91,33.3a6,6,0,0,1,2.36,11.55V54a1.32,1.32,0,0,1-1.29,1.3Zm-13.21-21A5,5,0,0,0,77.13,44l.33.13V54a.31.31,0,0,0,.31.32h14.3a.32.32,0,0,0,.32-.32V44.16l.33-.12a5.014,5.014,0,1,0-3.18-9.51l-.34.1-.2-.29a5.06,5.06,0,0,0-4-2.05,5,5,0,0,0-4,2.05l-.21.29-.34-.1a5,5,0,0,0-1.59-.23Z"/><rect class="e" width="15.93" height="1" transform="translate(76.96 51.07)"/><path class="e" d="M82,47.2a.5.5,0,0,1-.5-.5V44.64a.5.5,0,0,1,1,0V46.7A.5.5,0,0,1,82,47.2Z"/><path class="e" d="M87.93,47.2a.5.5,0,0,1-.5-.5V44.64a.5.5,0,0,1,1,0V46.7A.5.5,0,0,1,87.93,47.2Z"/><path class="e" d="M85,67.27a22.89,22.89,0,1,1,22.88-22.883A22.89,22.89,0,0,1,85,67.27ZM85,22.5a21.89,21.89,0,1,0,21.88,21.887A21.89,21.89,0,0,0,85,22.5Z"/><path class="e" d="M119.28,76.14a3,3,0,1,1,3-3,3,3,0,0,1-3,3Zm0-4.93a2,2,0,1,0,2,2A2,2,0,0,0,119.28,71.21Z"/><path class="e" d="M109.5,69a4.5,4.5,0,1,1,4.5-4.5,4.5,4.5,0,0,1-4.5,4.5Zm0-8a3.5,3.5,0,1,0,3.5,3.5,3.5,3.5,0,0,0-3.5-3.5Z"/><path class="e" d="M42.34,156.74a18.62,18.62,0,0,1,0-37.23h0A18.61,18.61,0,0,1,61,138.1h0a18.64,18.64,0,0,1-18.59,18.64Zm0-36.23h0a17.62,17.62,0,0,0,0,35.23h0A17.64,17.64,0,0,0,60,138.1h0a17.6,17.6,0,0,0-17.61-17.59Z"/><path class="e" d="M51.75,135a3.67,3.67,0,0,0-2.66-.89,3.62,3.62,0,0,0-2.51,1.24l-6.46,7.41a3.671,3.671,0,0,0,2.76,6.08,3.69,3.69,0,0,0,2.76-1.26l6.46-7.41a3.68,3.68,0,0,0-.35-5.17Zm-7.09,11.73a2.367,2.367,0,0,1-3.57-3.11l2.84-3.28,3.57,3.11Z"/><path class="e" d="M38.54,139.26h0a5.14,5.14,0,0,1,0-10.28h.05a5.14,5.14,0,0,1-.05,10.28Zm0-9.28a4.14,4.14,0,0,0,0,8.28,3.93,3.93,0,0,0,2.94-1.18,4.13,4.13,0,0,0-2.9-7.08h0Z"/><rect class="e" width="1" height="8.84" transform="translate(33.901 134.563) rotate(-89.46)"/><path class="e" d="M72.45,143.53a2.937,2.937,0,1,1,2.89-3.67h0a3,3,0,0,1-2.89,3.67Zm0-4.93a1.891,1.891,0,0,0-.47.06,1.787,1.787,0,1,0,.47-.06Z"/><path class="e" d="M247.29,157.86a19.18,19.18,0,1,1,19.17-19.177,19.18,19.18,0,0,1-19.17,19.177Zm0-37.36a18.18,18.18,0,1,0,18.17,18.177A18.18,18.18,0,0,0,247.29,120.5Z"/><rect class="e" width="1" height="5.62" transform="translate(246.016 135.869) rotate(-42.29)"/><rect class="e" width="1" height="5.62" transform="translate(243.889 137.8) rotate(-42.29)"/><path class="e" d="M236.71,148.06l1.88-9.05,5.53-2.09,8.08-7.35a3.24,3.24,0,0,1,2.38-.85,3.31,3.31,0,0,1,2.08,5.75l-8.08,7.35L246.06,147Zm2.75-8.31-1.5,7.17,7.44-.81,2.43-5,8.15-7.41a2.308,2.308,0,0,0-1.44-4.02,2.39,2.39,0,0,0-1.67.6l-8.3,7.51Z"/><rect class="e" width="5.37" height="1" transform="translate(237.397 146.71) rotate(-42.31)"/><circle class="e" cx="1.4" cy="1.4" r="1.4" transform="translate(240.634 142.089) rotate(-25.75)"/><path class="e" d="M215.5,143a2.5,2.5,0,1,1,2.5-2.5,2.5,2.5,0,0,1-2.5,2.5Zm0-4a1.5,1.5,0,1,0,1.5,1.5A1.5,1.5,0,0,0,215.5,139Z"/></g></svg>