<svg xmlns:xlink="http://www.w3.org/1999/xlink" xmlns="http://www.w3.org/2000/svg" width="488.616" height="445.988" viewBox="0 0 488.616 445.988"><defs><style>.a{fill:#fff;}.b{fill:#201d1e;}.c{fill:none;}.d{fill:#faf1d4;}.e{fill:#f26d4a;}.f{fill:#2b2b2b;}.g{fill:#fff1f0;}.h{fill:#231f20;}.i{fill:#eeeced;}.j{fill:#80c6a9;}.k{fill:#63927e;}.l{fill:#e9f1f8;}.m{fill:#fde6dd;}.n{fill:#fe6d43;}.o{opacity:0.3;}.p{fill:#ff906b;}</style></defs><g transform="translate(-1069.001 -142.046)"><g transform="translate(1067.922 127.549)"><g transform="translate(58.832 187.101)"><path class="a" d="M50.128,85.213,24,355.124h95.747L74.393,83" transform="translate(-24 -83)"/></g><g transform="translate(330.956 217.03)"><path class="a" d="M223.639,94.878,132,291.719l88.188,7.559L240.346,97.7" transform="translate(-132 -94.878)"/></g><g transform="translate(297.782 242.514)"><g transform="translate(0 21.838)"><g transform="translate(56.844 126.694)"><path class="a" d="M3.086,0H82.811A1.429,1.429,0,0,1,84.24,1.429v65.49a0,0,0,0,1,0,0H3.086A3.086,3.086,0,0,1,0,63.833V3.086A3.086,3.086,0,0,1,3.086,0Z" transform="translate(1.26 1.26)"/><path class="b" d="M228.154,233.381H150.43a9.047,9.047,0,0,1-9.036-9.036V172.977a9.047,9.047,0,0,1,9.036-9.036h72.864a4.866,4.866,0,0,1,4.86,4.86Zm-77.724-66.92a6.525,6.525,0,0,0-6.516,6.516v51.368a6.523,6.523,0,0,0,6.516,6.516h75.2V168.8a2.344,2.344,0,0,0-2.341-2.341Z" transform="translate(-141.394 -163.941)"/></g><g transform="translate(0 175.283)"><path class="a" d="M1.426,0H150.009a1.468,1.468,0,0,1,1.468,1.468V18.331a0,0,0,0,1,0,0H0a0,0,0,0,1,0,0V1.426A1.426,1.426,0,0,1,1.426,0Z" transform="translate(1.259 1.259)"/><path class="b" d="M271.569,204.075H120.094a1.26,1.26,0,0,1-1.26-1.26V188.078a4.858,4.858,0,0,1,4.853-4.853H267.87a4.963,4.963,0,0,1,4.959,4.959v14.632A1.259,1.259,0,0,1,271.569,204.075Zm-150.215-2.52H270.309V188.184a2.441,2.441,0,0,0-2.439-2.439H123.687a2.335,2.335,0,0,0-2.333,2.333Z" transform="translate(-118.834 -183.225)"/></g><g transform="translate(20.011)"><path class="a" d="M127.276,289.442V261.8a18.132,18.132,0,0,1,2.94-9.895l24.348-37.349,3.117-100.4h18.882l2.046,99.5,23.949,40.186a16.488,16.488,0,0,1,2.326,8.443v27.149Z" transform="translate(-126.016 -112.899)"/><path class="b" d="M206.9,291.462H126.776v-28.9a19.34,19.34,0,0,1,3.145-10.583l24.154-37.054,3.145-101.263h21.339l2.064,100.406,23.781,39.9a17.786,17.786,0,0,1,2.5,9.088Zm-77.608-2.52h75.089v-25.89a15.257,15.257,0,0,0-2.147-7.8l-24.121-40.471-.008-.333-2.021-98.272H159.66l-3.089,99.527-24.539,37.646a16.8,16.8,0,0,0-2.736,9.207Z" transform="translate(-126.776 -113.659)"/><g transform="translate(23.723 17.648)"><rect class="a" width="31.173" height="6.235" transform="translate(1.261 1.26)"/><path class="b" d="M169.884,129.416H136.191v-8.753h33.693Zm-31.173-2.52h28.654v-3.714H138.711Z" transform="translate(-136.191 -120.663)"/></g></g><g transform="translate(27.356 158.253)"><rect class="a" width="5.937" height="8.907" rx="0.734" transform="translate(1.26 1.261)"/><path class="b" d="M135.038,187.893H132.8a3.112,3.112,0,0,1-3.109-3.107v-5.208a3.115,3.115,0,0,1,3.109-3.112h2.237a3.115,3.115,0,0,1,3.112,3.112v5.208A3.113,3.113,0,0,1,135.038,187.893Zm-2.237-8.907a.591.591,0,0,0-.59.592v5.208a.59.59,0,0,0,.59.587h2.237a.592.592,0,0,0,.592-.587v-5.208a.593.593,0,0,0-.592-.592Z" transform="translate(-129.691 -176.466)"/></g><g transform="translate(38.342 158.253)"><rect class="a" width="5.938" height="8.907" rx="0.734" transform="translate(1.259 1.261)"/><path class="b" d="M139.4,187.893h-2.24a3.11,3.11,0,0,1-3.107-3.107v-5.208a3.113,3.113,0,0,1,3.109-3.112H139.4a3.113,3.113,0,0,1,3.109,3.112v5.208A3.11,3.11,0,0,1,139.4,187.893Zm-2.237-8.907a.591.591,0,0,0-.59.592v5.208a.588.588,0,0,0,.587.587h2.24a.59.59,0,0,0,.59-.587v-5.208a.591.591,0,0,0-.59-.592Z" transform="translate(-134.051 -176.466)"/></g><g transform="translate(48.597 158.253)"><rect class="a" width="5.938" height="8.907" rx="0.734" transform="translate(1.26 1.261)"/><path class="b" d="M143.468,187.893H141.23a3.112,3.112,0,0,1-3.109-3.107v-5.208a3.115,3.115,0,0,1,3.109-3.112h2.237a3.115,3.115,0,0,1,3.112,3.112v5.208A3.113,3.113,0,0,1,143.468,187.893Zm-2.237-8.907a.593.593,0,0,0-.59.592v5.208a.591.591,0,0,0,.59.587h2.237a.592.592,0,0,0,.592-.587v-5.208a.593.593,0,0,0-.592-.592Z" transform="translate(-138.121 -176.466)"/></g><g transform="translate(59.086 158.253)"><rect class="a" width="5.937" height="8.907" rx="0.734" transform="translate(1.259 1.261)"/><path class="b" d="M147.631,187.893h-2.237a3.112,3.112,0,0,1-3.109-3.107v-5.208a3.115,3.115,0,0,1,3.109-3.112h2.237a3.115,3.115,0,0,1,3.112,3.112v5.208A3.113,3.113,0,0,1,147.631,187.893Zm-2.237-8.907a.591.591,0,0,0-.59.592v5.208a.59.59,0,0,0,.59.587h2.237a.592.592,0,0,0,.592-.587v-5.208a.593.593,0,0,0-.592-.592Z" transform="translate(-142.284 -176.466)"/></g></g><g transform="translate(60.223)"><path class="a" d="M168.129,107.9a3.565,3.565,0,0,0-1.2.219,6.28,6.28,0,0,0-10.321.154,4.975,4.975,0,0,0-7.68,3.545c-.088-.008-.174-.028-.265-.028a3.646,3.646,0,0,0-3.646,3.646,3.56,3.56,0,0,0,.189,1.1,2.632,2.632,0,1,0,3.3,2.542l0-.018c.055,0,.1.018.159.018a3.632,3.632,0,0,0,3.25-2.031,4.966,4.966,0,0,0,5.344-.952,6.25,6.25,0,0,0,9.978-1.126,3.593,3.593,0,1,0,.892-7.073Z" transform="translate(-141.975 -104.232)"/><path class="b" d="M146.63,123.736a3.891,3.891,0,0,1-2.094-7.173,3.638,3.638,0,0,1-.018-.368,4.913,4.913,0,0,1,4.152-4.848,6.237,6.237,0,0,1,8.363-3.918,7.533,7.533,0,0,1,11.122.03,4.852,4.852,0,0,1,5.591,4.8,4.789,4.789,0,0,1-5.155,4.848,7.506,7.506,0,0,1-10.646,1.393,6.277,6.277,0,0,1-4.742.8,4.837,4.837,0,0,1-2.855,1.711A3.906,3.906,0,0,1,146.63,123.736Zm2.923-9.9a2.4,2.4,0,0,0-2.515,2.363,2.466,2.466,0,0,0,.129.726l.4,1.262-1.28.335a1.372,1.372,0,1,0,1.721,1.393V118.5l1.318.06h.04a2.358,2.358,0,0,0,2.18-1.318l.529-1.061,1.094.464a3.77,3.77,0,0,0,3.994-.716l.915-.854.862.912a4.989,4.989,0,0,0,7.975-.9l.481-.811.912.232a2.437,2.437,0,0,0,.585.086,2.342,2.342,0,0,0,2.338-2.341,2.266,2.266,0,0,0-3.114-2.192l-.892.317-.554-.766a4.975,4.975,0,0,0-4.074-2.1,5.036,5.036,0,0,0-4.18,2.225l-.7,1.033-1.041-.685a3.714,3.714,0,0,0-5.737,2.651l-.149,1.182-1.187-.083Z" transform="translate(-142.735 -104.992)"/></g></g><g transform="translate(11.291 281.796)"><g transform="translate(0 2.498)"><g transform="translate(44.953 4.422)"><path class="c" d="M22.973,123.329" transform="translate(-22.973 -123.329)"/></g><g transform="translate(57.632)"><path class="c" d="M28,121.574" transform="translate(-28.005 -121.574)"/></g><g transform="translate(57.632 157.449)"><path class="c" d="M28,184.062" transform="translate(-28.005 -184.062)"/></g><g transform="translate(0 49.184)"><g transform="translate(0 0.826)"><path class="a" d="M35.437,265.582V141.922s-4.157,0-10.913,2.882a22.3,22.3,0,0,0-9.681,7.5S5.632,186.349,5.632,265.582Z" transform="translate(-4.372 -140.662)"/><path class="b" d="M37.457,267.6H5.132v-1.26c0-78.493,9.162-113.262,9.255-113.6l.149-.348a23.513,23.513,0,0,1,10.255-7.987c6.914-2.948,11.228-2.983,11.407-2.983h1.26Zm-29.805-2.52H34.937V144.053a35.422,35.422,0,0,0-9.159,2.671,21.58,21.58,0,0,0-9.01,6.869C16.035,156.487,7.745,190.911,7.652,265.082Z" transform="translate(-5.132 -141.422)"/></g><g transform="translate(20.865)"><path class="d" d="M13.413,141.094" transform="translate(-13.413 -141.094)"/></g><g transform="translate(8.23 21.807)"><line class="d" x1="22.834" transform="translate(0.001 1.26)"/><rect class="b" width="22.834" height="2.52"/></g><g transform="translate(3.122 70.608)"><line class="d" x1="27.943" transform="translate(0.001 1.259)"/><rect class="b" width="27.943" height="2.52"/></g><g transform="translate(2.409 99.874)"><line class="d" x1="28.656" transform="translate(0.001 1.259)"/><rect class="b" width="28.656" height="2.52"/></g><g transform="translate(22.536 6.018)"><line class="d" x1="5.069" transform="translate(0.001 1.26)"/><rect class="b" width="5.069" height="2.52"/></g><g transform="translate(17.467 15.394)"><line class="d" x1="10.137" transform="translate(0.001 1.26)"/><rect class="b" width="10.138" height="2.52"/></g><g transform="translate(17.467 26.922)"><line class="d" x1="10.137" transform="translate(0.001 1.26)"/><rect class="b" width="10.138" height="2.52"/></g><g transform="translate(17.469 33.834)"><path class="d" d="M12.065,154.522" transform="translate(-12.065 -154.522)"/></g><g transform="translate(27.605 33.834)"><path class="d" d="M16.088,154.522" transform="translate(-16.088 -154.522)"/></g><g transform="translate(17.467 37.681)"><line class="d" x1="10.137" transform="translate(0.001 1.26)"/><rect class="b" width="10.138" height="2.52"/></g><g transform="translate(17.469 43.792)"><path class="d" d="M12.065,158.474" transform="translate(-12.065 -158.474)"/></g><g transform="translate(27.605 43.792)"><path class="d" d="M16.088,158.474" transform="translate(-16.088 -158.474)"/></g><g transform="translate(17.467 48.186)"><line class="d" x1="10.137" transform="translate(0.001 1.26)"/><rect class="b" width="10.138" height="2.52"/></g><g transform="translate(17.469 54.551)"><path class="d" d="M12.065,162.744" transform="translate(-12.065 -162.744)"/></g><g transform="translate(27.605 54.551)"><path class="d" d="M16.088,162.744" transform="translate(-16.088 -162.744)"/></g><g transform="translate(17.467 58.221)"><line class="d" x1="10.137" transform="translate(0.001 1.26)"/><rect class="b" width="10.138" height="2.52"/></g><g transform="translate(17.467 77.397)"><line class="d" x1="10.137" transform="translate(0.001 1.26)"/><rect class="b" width="10.138" height="2.52"/></g><g transform="translate(17.469 84.308)"><path class="d" d="M12.065,174.554" transform="translate(-12.065 -174.554)"/></g><g transform="translate(27.605 84.308)"><path class="d" d="M16.088,174.554" transform="translate(-16.088 -174.554)"/></g><g transform="translate(17.467 88.156)"><line class="d" x1="10.137" transform="translate(0.001 1.26)"/><rect class="b" width="10.138" height="2.52"/></g><g transform="translate(17.467 106.663)"><line class="d" x1="10.137" transform="translate(0.001 1.26)"/><rect class="b" width="10.138" height="2.52"/></g><g transform="translate(17.467 117.422)"><line class="d" x1="10.137" transform="translate(0.001 1.26)"/><rect class="b" width="10.138" height="2.52"/></g><g transform="translate(17.469 64.589)"><path class="d" d="M12.065,166.728" transform="translate(-12.065 -166.728)"/></g><g transform="translate(27.605 64.589)"><path class="d" d="M16.088,166.728" transform="translate(-16.088 -166.728)"/></g></g></g><g transform="translate(29.805)"><path class="a" d="M47.911,297.258H17.461V136.4a2.324,2.324,0,0,1,1.613-2.129L45.7,121.186a1.588,1.588,0,0,1,2.207,1.3Z" transform="translate(-16.201 -119.829)"/><path class="b" d="M49.931,299.271H16.961V137.151a3.565,3.565,0,0,1,2.442-3.313l26.5-13.029a3.064,3.064,0,0,1,2.885.3,2.59,2.59,0,0,1,1.139,2.134Zm-30.45-2.52h27.93V123.24a.5.5,0,0,0-.514-.116L20.39,136.153c-.6.227-.91.6-.91,1Z" transform="translate(-16.961 -120.582)"/></g><g transform="translate(41.925 21.87)"><path class="e" d="M22.27,134.668a4.907,4.907,0,1,0,4.908-4.906A4.908,4.908,0,0,0,22.27,134.668Z" transform="translate(-21.013 -128.502)"/><path class="f" d="M27.937,141.6a6.167,6.167,0,1,1,6.166-6.168A6.172,6.172,0,0,1,27.937,141.6Zm0-9.814a3.647,3.647,0,1,0,3.646,3.646A3.65,3.65,0,0,0,27.937,131.782Z" transform="translate(-21.771 -129.262)"/></g></g><g transform="translate(80.602 308.516)"><g transform="translate(0.945 0.869)"><g transform="translate(1.66)"><rect class="g" width="46.604" height="148.58" transform="translate(1.26 1.259)"/><path class="h" d="M81.538,282.631h-46.6a1.259,1.259,0,0,1-1.26-1.26V132.792a1.257,1.257,0,0,1,1.26-1.26h46.6a1.259,1.259,0,0,1,1.26,1.26v148.58A1.26,1.26,0,0,1,81.538,282.631Zm-45.344-2.52H80.278V134.052H36.194Z" transform="translate(-33.674 -131.532)"/></g><g transform="translate(9.966 11.784)"><path class="i" d="M36.97,161.216V136.209h6.992v25.007" transform="translate(-36.97 -136.209)"/></g><g transform="translate(22.487 11.784)"><path class="i" d="M41.94,161.216V136.209h6.992v25.007" transform="translate(-41.94 -136.209)"/></g><g transform="translate(35.008 11.784)"><path class="i" d="M46.909,161.216V136.209H53.9v25.007" transform="translate(-46.909 -136.209)"/></g><g transform="translate(9.965 43.491)"><path class="i" d="M36.97,213.226V148.793h6.992v64.433" transform="translate(-36.97 -148.793)"/></g><g transform="translate(22.486 43.491)"><path class="i" d="M41.939,213.226V148.793h6.992v64.433" transform="translate(-41.939 -148.793)"/></g><g transform="translate(35.007 43.491)"><path class="i" d="M46.908,213.226V148.793H53.9v64.433" transform="translate(-46.908 -148.793)"/></g><g transform="translate(8.705 125.182)"><rect class="a" width="6.992" height="23.397" transform="translate(1.259 1.261)"/><path class="h" d="M44.719,207.131H37.73a1.259,1.259,0,0,1-1.26-1.26v-23.4a1.259,1.259,0,0,1,1.26-1.26h6.99a1.259,1.259,0,0,1,1.26,1.26v23.4A1.259,1.259,0,0,1,44.719,207.131Zm-5.73-2.52h4.47V183.734H38.99Z" transform="translate(-36.47 -181.214)"/></g><g transform="translate(21.226 125.182)"><rect class="a" width="6.992" height="23.397" transform="translate(1.26 1.261)"/><path class="h" d="M49.691,207.131H42.7a1.26,1.26,0,0,1-1.26-1.26v-23.4a1.26,1.26,0,0,1,1.26-1.26h6.992a1.26,1.26,0,0,1,1.26,1.26v23.4A1.26,1.26,0,0,1,49.691,207.131Zm-5.732-2.52h4.472V183.734H43.959Z" transform="translate(-41.439 -181.214)"/></g><g transform="translate(33.746 125.182)"><rect class="a" width="6.992" height="23.397" transform="translate(1.261 1.261)"/><path class="h" d="M54.662,207.131H47.668a1.26,1.26,0,0,1-1.26-1.26v-23.4a1.26,1.26,0,0,1,1.26-1.26h6.995a1.26,1.26,0,0,1,1.26,1.26v23.4A1.26,1.26,0,0,1,54.662,207.131Zm-5.735-2.52H53.4V183.734H48.928Z" transform="translate(-46.408 -181.214)"/></g><g transform="translate(0 113.511)"><rect class="j" width="50.001" height="5.076" transform="translate(1.26 1.259)"/><path class="b" d="M84.275,184.179h-50a1.259,1.259,0,0,1-1.26-1.26v-5.077a1.259,1.259,0,0,1,1.26-1.26h50a1.259,1.259,0,0,1,1.26,1.26v5.077A1.259,1.259,0,0,1,84.275,184.179Zm-48.74-2.52H83.015V179.1H35.535Z" transform="translate(-33.015 -176.582)"/></g></g><path class="j" d="M.66,0H50.624a.711.711,0,0,1,.711.711V5.543a0,0,0,0,1,0,0H0a0,0,0,0,1,0,0V.66A.66.66,0,0,1,.66,0Z" transform="translate(1.26 1.26)"/><path class="b" d="M85.236,139.25H33.9a1.259,1.259,0,0,1-1.26-1.26v-3.88a2.927,2.927,0,0,1,2.923-2.923H83.444a3.054,3.054,0,0,1,3.051,3.051v3.752A1.26,1.26,0,0,1,85.236,139.25ZM35.16,136.73H83.976v-2.492a.533.533,0,0,0-.532-.532H35.563a.4.4,0,0,0-.4.4Z" transform="translate(-32.64 -131.187)"/></g><g transform="translate(86.549 415.877)"><path class="j" d="M35,214.358v-2.794a2.662,2.662,0,0,1,2.517-2.787h2.374a2.665,2.665,0,0,0,2.52-2.787V203.3a2.662,2.662,0,0,1,2.517-2.787h7.7a2.662,2.662,0,0,0,2.517-2.787V182.156a2.664,2.664,0,0,1,2.52-2.787h5.647a2.664,2.664,0,0,0,2.52-2.787h0a2.662,2.662,0,0,1,2.517-2.787H85.509a2.664,2.664,0,0,1,2.52,2.787v6.178a2.664,2.664,0,0,0,2.517,2.789H104.22a2.662,2.662,0,0,1,2.517,2.787v14.622a2.663,2.663,0,0,0,2.517,2.787h7.7a2.664,2.664,0,0,1,2.517,2.789v5.654a2.666,2.666,0,0,1-2.512,2.789l-79.438.166A2.662,2.662,0,0,1,35,214.358Z" transform="translate(-35 -173.796)"/><g transform="translate(27.553 10.532)"><path class="k" d="M57.208,183.373c-1.449,0-2.046-1.373-2.4-2.195-.028-.065-.058-.139-.093-.217-.035.076-.066.151-.093.214-.358.821-.955,2.2-2.406,2.2S50.158,182,49.8,181.178l-.1-.224c-.035.078-.071.156-.1.224-.358.819-.955,2.195-2.409,2.195a1.26,1.26,0,0,1-.242-2.5,7.1,7.1,0,0,0,.343-.706c.355-.821.955-2.195,2.406-2.195s2.051,1.373,2.409,2.195c.028.065.063.144.1.224.033-.081.068-.156.1-.222.355-.821.955-2.2,2.406-2.2s2.048,1.376,2.406,2.2a6.518,6.518,0,0,0,.338.7,1.259,1.259,0,0,1-.247,2.494Z" transform="translate(-45.935 -177.976)"/></g><g transform="translate(21.168 30.589)"><path class="k" d="M54.679,191.333c-1.451,0-2.051-1.376-2.406-2.2-.028-.063-.06-.136-.093-.214-.035.078-.068.154-.1.219-.358.819-.952,2.195-2.4,2.195s-2.054-1.376-2.409-2.2c-.03-.066-.066-.144-.1-.224l-.1.227c-.355.819-.955,2.195-2.409,2.195a1.26,1.26,0,0,1-.239-2.5,7.091,7.091,0,0,0,.34-.706c.358-.821.957-2.195,2.409-2.195s2.051,1.373,2.409,2.195c.028.065.063.141.1.222.035-.078.068-.156.1-.219.358-.824.957-2.2,2.409-2.2s2.046,1.373,2.4,2.195a6.346,6.346,0,0,0,.338.706,1.261,1.261,0,0,1-.244,2.5Z" transform="translate(-43.401 -185.936)"/></g><g transform="translate(46.085 18.313)"><path class="k" d="M64.566,186.464c-1.451,0-2.048-1.376-2.4-2.2-.028-.063-.06-.139-.1-.214-.033.076-.066.151-.093.212-.355.824-.955,2.2-2.406,2.2s-2.051-1.376-2.409-2.2l-.1-.224c-.035.081-.068.159-.1.224-.358.821-.955,2.2-2.409,2.2a1.26,1.26,0,0,1-.242-2.5,7.088,7.088,0,0,0,.343-.706c.358-.821.955-2.2,2.406-2.2s2.054,1.376,2.409,2.2c.03.063.066.141.1.222.035-.081.071-.156.1-.219.358-.824.955-2.2,2.406-2.2s2.051,1.376,2.409,2.2a6.526,6.526,0,0,0,.335.7,1.261,1.261,0,0,1-.244,2.5Z" transform="translate(-53.29 -181.064)"/></g></g><g transform="translate(423.141 289.163)"><g transform="translate(0 2.447)"><g transform="translate(43.127 4.238)"><path class="c" d="M185.7,126.159" transform="translate(-185.702 -126.159)"/></g><g transform="translate(55.274)"><path class="c" d="M190.523,124.477" transform="translate(-190.523 -124.477)"/></g><g transform="translate(55.274 150.865)"><path class="c" d="M190.523,184.352" transform="translate(-190.523 -184.352)"/></g><g transform="translate(0 47.128)"><g transform="translate(0 0.738)"><path class="a" d="M197.644,262.464V143.974s-3.981,0-10.457,2.764a21.381,21.381,0,0,0-9.275,7.189s-8.826,32.615-8.826,108.537Z" transform="translate(-167.826 -142.714)"/><path class="b" d="M199.666,264.484h-31.08v-1.26c0-75.22,8.781-108.54,8.869-108.867l.151-.345a22.535,22.535,0,0,1,9.847-7.672c6.634-2.832,10.782-2.865,10.953-2.865h1.26Zm-28.56-2.52h26.041V146.107a33.937,33.937,0,0,0-8.7,2.55,20.6,20.6,0,0,0-8.6,6.554C179.123,158.038,171.2,191.008,171.106,261.964Z" transform="translate(-168.586 -143.474)"/></g><g transform="translate(20.044)"><path class="l" d="M176.541,143.181" transform="translate(-176.541 -143.181)"/></g><g transform="translate(7.939 20.842)"><line class="l" x1="21.879" transform="translate(0 1.26)"/><rect class="b" width="21.88" height="2.52" transform="translate(0.001)"/></g><g transform="translate(3.044 67.602)"><line class="l" x1="26.774" transform="translate(0.001 1.26)"/><rect class="b" width="26.776" height="2.52"/></g><g transform="translate(2.361 95.644)"><line class="l" x1="27.458" transform="translate(0 1.26)"/><rect class="b" width="27.458" height="2.52" transform="translate(0.001)"/></g><g transform="translate(21.647 5.714)"><line class="l" x1="4.857" transform="translate(0 1.26)"/><rect class="b" width="4.855" height="2.52" transform="translate(0.001)"/></g><g transform="translate(16.791 14.698)"><line class="l" x1="9.713" transform="translate(0 1.26)"/><rect class="b" width="9.712" height="2.52" transform="translate(0.001)"/></g><g transform="translate(16.791 25.743)"><line class="l" x1="9.713" transform="translate(0 1.26)"/><rect class="b" width="9.712" height="2.52" transform="translate(0.001)"/></g><g transform="translate(16.791 32.421)"><path class="l" d="M175.25,156.048" transform="translate(-175.25 -156.048)"/></g><g transform="translate(26.504 32.421)"><path class="l" d="M179.1,156.048" transform="translate(-179.105 -156.048)"/></g><g transform="translate(16.791 36.053)"><line class="l" x1="9.713" transform="translate(0 1.259)"/><rect class="b" width="9.712" height="2.52" transform="translate(0.001)"/></g><g transform="translate(16.791 41.96)"><path class="l" d="M175.25,159.834" transform="translate(-175.25 -159.834)"/></g><g transform="translate(26.504 41.96)"><path class="l" d="M179.1,159.834" transform="translate(-179.105 -159.834)"/></g><g transform="translate(16.791 46.117)"><line class="l" x1="9.713" transform="translate(0 1.26)"/><rect class="b" width="9.712" height="2.52" transform="translate(0.001)"/></g><g transform="translate(16.791 52.27)"><path class="l" d="M175.25,163.926" transform="translate(-175.25 -163.926)"/></g><g transform="translate(26.504 52.27)"><path class="l" d="M179.1,163.926" transform="translate(-179.105 -163.926)"/></g><g transform="translate(16.791 55.733)"><line class="l" x1="9.713" transform="translate(0 1.26)"/><rect class="b" width="9.712" height="2.52" transform="translate(0.001)"/></g><g transform="translate(16.791 74.108)"><line class="l" x1="9.713" transform="translate(0 1.259)"/><rect class="b" width="9.712" height="2.52" transform="translate(0.001)"/></g><g transform="translate(16.791 80.783)"><path class="l" d="M175.25,175.242" transform="translate(-175.25 -175.242)"/></g><g transform="translate(26.504 80.783)"><path class="l" d="M179.1,175.242" transform="translate(-179.105 -175.242)"/></g><g transform="translate(16.791 84.417)"><line class="l" x1="9.713" transform="translate(0 1.26)"/><rect class="b" width="9.712" height="2.52" transform="translate(0.001)"/></g><g transform="translate(16.791 102.15)"><line class="l" x1="9.713" transform="translate(0 1.26)"/><rect class="b" width="9.712" height="2.52" transform="translate(0.001)"/></g><g transform="translate(16.791 112.459)"><line class="l" x1="9.713" transform="translate(0 1.26)"/><rect class="b" width="9.712" height="2.52" transform="translate(0.001)"/></g><g transform="translate(16.791 61.888)"><path class="l" d="M175.25,167.743" transform="translate(-175.25 -167.743)"/></g><g transform="translate(26.504 61.888)"><path class="l" d="M179.1,167.743" transform="translate(-179.105 -167.743)"/></g></g></g><g transform="translate(28.558)"><path class="a" d="M209.6,292.815H180.42V138.682a2.227,2.227,0,0,1,1.547-2.041l25.517-12.535a1.52,1.52,0,0,1,2.114,1.245Z" transform="translate(-179.16 -122.753)"/><path class="b" d="M211.617,294.828h-31.7V139.435a3.466,3.466,0,0,1,2.376-3.225l25.391-12.48a2.974,2.974,0,0,1,2.814.285,2.53,2.53,0,0,1,1.116,2.089Zm-29.178-2.52H209.1V126.1a.434.434,0,0,0-.421-.06l-25.393,12.482c-.562.212-.844.549-.844.91Z" transform="translate(-179.92 -123.506)"/></g><g transform="translate(40.169 20.954)"><path class="e" d="M185.028,137.025a4.7,4.7,0,1,0,4.7-4.7A4.7,4.7,0,0,0,185.028,137.025Z" transform="translate(-183.768 -131.061)"/><path class="f" d="M190.492,143.748a5.963,5.963,0,1,1,5.962-5.964A5.971,5.971,0,0,1,190.492,143.748Zm0-9.406a3.443,3.443,0,1,0,3.442,3.442A3.449,3.449,0,0,0,190.492,134.342Z" transform="translate(-184.528 -131.822)"/></g></g><g transform="translate(469.737 457.965)"><path class="b" d="M205.777,193.02H188.339a1.26,1.26,0,0,1,0-2.52h17.439a1.26,1.26,0,0,1,0,2.52Z" transform="translate(-187.079 -190.5)"/></g><g transform="translate(36.18 144.783)"><g transform="translate(34.948 0)"><path class="m" d="M29.371,83.886a21.207,21.207,0,0,1,39.105-6.717" transform="translate(-28.134 -65.444)"/><path class="h" d="M31.354,84.883,28.88,84.41A22.375,22.375,0,0,1,50.922,66.2c.186,0,.37,0,.557.008A22.337,22.337,0,0,1,70.306,77.292l-2.169,1.277a19.947,19.947,0,0,0-36.782,6.314Z" transform="translate(-28.88 -66.205)"/></g><g transform="translate(0.955 10.556)"><path class="a" d="M15.831,104.232C23.08,90.518,41.154,78.245,64.007,73.2c24.814-5.478,48.105-.852,59.734,10.414" transform="translate(-14.717 -69.628)"/><path class="h" d="M17.616,105.585l-2.227-1.177c7.7-14.561,26.479-26.7,49.02-31.672,24.632-5.437,48.531-1.225,60.88,10.739l-1.751,1.809C111.779,73.893,88.784,69.932,64.951,75.2,43.115,80.016,24.976,91.662,17.616,105.585Z" transform="translate(-15.389 -70.394)"/></g><g transform="translate(0 16.958)"><ellipse class="m" cx="57.596" cy="11.484" rx="57.596" ry="11.484" transform="translate(0 19.137) rotate(-9.563)"/><path class="h" d="M38.02,107.052c-12.818,0-21.961-1.87-22.717-6.345-1.386-8.252,27.081-17.486,55.924-22.344,15.249-2.57,29.79-3.8,40.965-3.467,12.094.36,18.552,2.467,19.19,6.256C132.769,89.4,104.3,98.639,75.459,103.5A237.008,237.008,0,0,1,38.02,107.052Zm70.445-29.689a230.272,230.272,0,0,0-36.82,3.485c-34.419,5.8-54.563,15.231-53.855,19.442s22.833,6.521,57.252.723S129.6,85.781,128.894,81.57c-.285-1.7-4.848-3.8-16.778-4.155C110.939,77.38,109.717,77.363,108.464,77.363Z" transform="translate(-14.639 -70.036)"/></g><g transform="translate(45.565 39.129)"><ellipse class="a" cx="13.437" cy="2.09" rx="13.437" ry="2.09" transform="translate(0.919 4.487) rotate(-9.563)"/><path class="h" d="M38.459,90.363c-2.94,0-5.107-.489-5.339-1.872-.27-1.59,1.595-2.557,4.477-3.515a66.014,66.014,0,0,1,9.459-2.23c6.607-1.116,14.586-1.87,15.047.862.27,1.59-1.595,2.557-4.48,3.517a66.426,66.426,0,0,1-9.456,2.227A62.921,62.921,0,0,1,38.459,90.363Zm-1.3-2.552a54.846,54.846,0,0,0,10.588-.942,55.224,55.224,0,0,0,10.31-2.578,55.512,55.512,0,0,0-10.585.94A55.064,55.064,0,0,0,37.161,87.811Z" transform="translate(-33.094 -81.734)"/></g></g><g transform="translate(383.853 191.411)"><g transform="translate(34.656 0)"><path class="m" d="M167.167,92.608a16.267,16.267,0,0,1,29.727,6.531" transform="translate(-166.111 -83.943)"/><path class="h" d="M196.284,100.087a15.007,15.007,0,0,0-27.424-6.027l-2.111-1.373a17.527,17.527,0,0,1,32.03,7.037Z" transform="translate(-166.748 -84.71)"/></g><g transform="translate(2.936 7.323)"><path class="a" d="M154.481,97.323c9.116-7.65,25.507-11.147,43.2-8.123,19.215,3.281,34.426,13.3,39.433,24.665" transform="translate(-153.67 -86.858)"/><path class="h" d="M236.451,115.13c-5.022-11.4-20.132-20.795-38.49-23.932-16.824-2.87-32.99.134-42.182,7.846l-1.62-1.928c9.744-8.176,26.7-11.391,44.225-8.4,19.17,3.273,35.018,13.243,40.375,25.4Z" transform="translate(-154.159 -87.617)"/></g><g transform="translate(0 8.23)"><ellipse class="m" cx="8.81" cy="44.181" rx="8.81" ry="44.181" transform="translate(0 17.197) rotate(-77.427)"/><path class="h" d="M228.641,117.908q-.9,0-1.87-.023a169.081,169.081,0,0,1-31.3-4.314,168.93,168.93,0,0,1-30.165-9.4c-8.756-3.87-12.681-7.247-11.994-10.323s5.674-4.442,15.241-4.248a169,169,0,0,1,31.3,4.314,169.369,169.369,0,0,1,30.168,9.4c8.756,3.87,12.679,7.249,11.994,10.323h0C241.376,116.507,237,117.908,228.641,117.908Zm-61.86-25.8c-8.252,0-10.824,1.469-11.008,2.3-.2.884,1.754,3.58,10.555,7.471a166.777,166.777,0,0,0,29.692,9.242,166.672,166.672,0,0,0,30.808,4.253c9.638.227,12.53-1.4,12.727-2.278h0c.2-.884-1.754-3.583-10.55-7.471a166.436,166.436,0,0,0-29.7-9.242A166.643,166.643,0,0,0,168.5,92.125Q167.6,92.106,166.781,92.1Z" transform="translate(-152.625 -85.53)"/></g><g transform="translate(34.518 23.24)"><ellipse class="a" cx="1.603" cy="10.308" rx="1.603" ry="10.308" transform="translate(0.932 3.319) rotate(-77.427)"/><path class="h" d="M186.137,101.929c-.408,0-.852-.015-1.318-.048a50.779,50.779,0,0,1-7.408-1.157c-11.288-2.515-10.822-4.619-10.668-5.311s.635-2.792,11.913-.275c2.144.476,9.225,2.182,10.436,4.092a1.627,1.627,0,0,1,.232,1.222C189.067,101.6,187.891,101.929,186.137,101.929ZM171.9,96.565a51.158,51.158,0,0,0,6.055,1.7,51.676,51.676,0,0,0,6.208,1.031A57.364,57.364,0,0,0,171.9,96.565Z" transform="translate(-166.693 -93.934)"/></g></g><g transform="translate(161.065 289.457)"><g transform="translate(2.363 40.648)"><rect class="a" width="91.693" height="127.861" transform="translate(92.952 129.12) rotate(180)"/><path class="b" d="M159.722,270.135H65.512V139.755h94.21Zm-91.691-2.52H157.2V142.275H68.032Z" transform="translate(-65.512 -139.755)"/><g transform="translate(18.722 17.048)"><rect class="i" width="65.055" height="6.186" rx="0.02" transform="translate(65.055 6.186) rotate(180)"/></g><g transform="translate(18.722 31.996)"><rect class="i" width="65.055" height="6.186" rx="0.02" transform="translate(65.055 6.186) rotate(180)"/></g><g transform="translate(18.722 46.944)"><rect class="i" width="65.055" height="6.186" rx="0.02" transform="translate(65.055 6.186) rotate(180)"/></g><g transform="translate(18.722 61.892)"><rect class="i" width="65.055" height="6.186" rx="0.02" transform="translate(65.055 6.186) rotate(180)"/></g><g transform="translate(18.722 76.84)"><rect class="i" width="65.055" height="6.186" rx="0.02" transform="translate(65.055 6.186) rotate(180)"/></g><g transform="translate(18.722 91.788)"><rect class="i" width="65.055" height="6.186" rx="0.02" transform="translate(65.055 6.186) rotate(180)"/></g><g transform="translate(18.722 106.736)"><rect class="i" width="65.055" height="6.186" rx="0.02" transform="translate(65.055 6.186) rotate(180)"/></g></g><path class="a" d="M103.849,155.657V141.612c0-.935-31.551-17.489-31.551-17.489a1.366,1.366,0,0,0-.935,1.3v30.236a1.369,1.369,0,0,1-1.371,1.371H66.445a1.371,1.371,0,0,0-1.371,1.371V291.26a1.37,1.37,0,0,0,1.371,1.371h42.844a1.369,1.369,0,0,0,1.371-1.371V166.138a1.368,1.368,0,0,1,1.371-1.368H157.76a1.372,1.372,0,0,0,1.371-1.371v-5a1.371,1.371,0,0,0-1.371-1.371H105.22A1.371,1.371,0,0,1,103.849,155.657Zm-1.371,130.809H73.432a1.371,1.371,0,0,1-1.371-1.371v-92.56a1.368,1.368,0,0,1,1.371-1.368h29.047a1.368,1.368,0,0,1,1.371,1.368v92.56A1.371,1.371,0,0,1,102.478,286.465Z" transform="translate(-63.814 -122.862)"/><path class="b" d="M110.049,294.651H67.2a2.634,2.634,0,0,1-2.631-2.628V159.158a2.634,2.634,0,0,1,2.631-2.63h3.548l.108-30.347a2.634,2.634,0,0,1,1.8-2.494,1.272,1.272,0,0,1,.988.081c32.224,16.91,32.224,17.658,32.224,18.605v14.045a.109.109,0,0,0,.111.111h52.54a2.63,2.63,0,0,1,2.628,2.63v5a2.63,2.63,0,0,1-2.628,2.628H112.79l-.111,125.235A2.634,2.634,0,0,1,110.049,294.651ZM67.2,159.047l-.111,6.481V292.023l42.955.108L110.16,166.9a2.636,2.636,0,0,1,2.631-2.631H158.52l.108-5.11-52.648-.111a2.636,2.636,0,0,1-2.631-2.631V142.912c-2.651-1.892-19.044-10.691-29.891-16.4l-.078,29.9a2.632,2.632,0,0,1-2.628,2.631Zm36.034,129.438H74.192a2.634,2.634,0,0,1-2.631-2.631v-92.56a2.634,2.634,0,0,1,2.631-2.631h29.047a2.636,2.636,0,0,1,2.631,2.631v92.56A2.636,2.636,0,0,1,103.238,288.485Zm-29.047-95.3-.111,92.671,29.158.111a.112.112,0,0,0,.111-.111v-92.56Z" transform="translate(-64.574 -123.623)"/><g transform="translate(14.498 38.295)"><path class="j" d="M86.541,144.139H81.723v-4.818H75.646v4.818H70.828v6.077h4.818v4.818h6.077v-4.818h4.818Z" transform="translate(-69.568 -138.062)"/><path class="b" d="M82.483,157.053H76.405a1.26,1.26,0,0,1-1.26-1.26v-3.558H71.588a1.26,1.26,0,0,1-1.26-1.26V144.9a1.26,1.26,0,0,1,1.26-1.26h3.558v-3.558a1.259,1.259,0,0,1,1.26-1.26h6.077a1.257,1.257,0,0,1,1.26,1.26v3.558H87.3a1.259,1.259,0,0,1,1.26,1.26v6.077a1.259,1.259,0,0,1-1.26,1.26H83.743v3.558A1.259,1.259,0,0,1,82.483,157.053Zm-4.818-2.52h3.558v-3.558a1.259,1.259,0,0,1,1.26-1.26h3.558v-3.558H82.483a1.26,1.26,0,0,1-1.26-1.26v-3.558H77.665V144.9a1.259,1.259,0,0,1-1.26,1.26H72.848v3.558h3.558a1.257,1.257,0,0,1,1.26,1.26Z" transform="translate(-70.328 -138.821)"/></g></g><g transform="translate(267.584 320.122)"><g transform="translate(2.419 0.862)"><rect class="a" width="43.238" height="136.866" transform="translate(1.259 1.259)"/><path class="h" d="M152.306,275.52H109.069a1.259,1.259,0,0,1-1.26-1.26V137.395a1.257,1.257,0,0,1,1.26-1.26h43.238a1.259,1.259,0,0,1,1.26,1.26V274.261A1.26,1.26,0,0,1,152.306,275.52ZM110.329,273h40.718V138.655H110.329Z" transform="translate(-107.809 -136.135)"/><g transform="translate(7.796 10.674)"><path class="i" d="M110.9,169.231v-28.86h6.487v28.86" transform="translate(-110.903 -140.371)"/></g><g transform="translate(19.412 10.674)"><path class="i" d="M115.513,169.231v-28.86H122v28.86" transform="translate(-115.513 -140.371)"/></g><g transform="translate(31.029 10.674)"><path class="i" d="M120.124,169.231v-28.86h6.487v28.86" transform="translate(-120.124 -140.371)"/></g><g transform="translate(7.794 43.739)"><path class="i" d="M110.9,248v-94.5h6.487V248" transform="translate(-110.902 -153.494)"/></g><g transform="translate(19.41 43.739)"><path class="i" d="M115.512,248v-94.5H122V248" transform="translate(-115.512 -153.494)"/></g><g transform="translate(31.027 43.739)"><path class="i" d="M120.123,248v-94.5h6.487V248" transform="translate(-120.123 -153.494)"/></g></g><path class="e" d="M.612,0H46.967a.66.66,0,0,1,.66.66V5.142a0,0,0,0,1,0,0H0a0,0,0,0,1,0,0V.612A.612.612,0,0,1,.612,0Z" transform="translate(1.259 1.261)"/><path class="f" d="M155.736,143.455H108.109a1.257,1.257,0,0,1-1.26-1.26v-3.6a2.806,2.806,0,0,1,2.8-2.8h44.422A2.927,2.927,0,0,1,157,138.716v3.48A1.259,1.259,0,0,1,155.736,143.455Zm-46.367-2.52h45.107v-2.22a.4.4,0,0,0-.4-.4H109.651a.284.284,0,0,0-.282.285Z" transform="translate(-106.849 -135.793)"/></g><g transform="translate(1.079 457.965)"><path class="b" d="M464.5,193.02H2.339a1.26,1.26,0,0,1,0-2.52H464.5a1.26,1.26,0,0,1,0,2.52Z" transform="translate(-1.079 -190.5)"/></g><g transform="translate(103.076 14.497)"><g transform="translate(92.393)"><path class="m" d="M78.7,51a52.093,52.093,0,0,1,97.362-4.556" transform="translate(-77.506 -13.734)"/><path class="h" d="M80.624,52.148l-2.4-.776A53.353,53.353,0,0,1,177.946,46.7l-2.313,1a50.834,50.834,0,0,0-95.009,4.442Z" transform="translate(-78.228 -14.497)"/></g><g transform="translate(1.309 28.643)"><path class="n" d="M42.489,88.545C64.307,57.3,112.08,32.845,169.316,27.453,231.467,21.6,286.854,39.913,311.8,70.892" transform="translate(-41.456 -25.1)"/><path class="h" d="M44.145,90.033l-2.066-1.444c22.866-32.743,71.816-56.357,127.742-61.626C230.908,21.2,287.29,38.438,313.4,70.868l-1.965,1.58C285.847,40.663,230.364,23.8,170.058,29.47,114.847,34.671,66.6,57.877,44.145,90.033Z" transform="translate(-42.079 -25.865)"/></g><g transform="translate(0 57.039)"><ellipse class="m" cx="141.488" cy="28.212" rx="141.488" ry="28.212" transform="matrix(0.999, -0.044, 0.044, 0.999, 0.038, 12.328)"/><path class="h" d="M155.974,99C96.286,99,42.259,90.975,41.566,75.131c-.456-10.5,22.312-18.31,41.491-23.012,26.545-6.508,62-11,99.839-12.649,70.087-3.056,143.092,4.792,143.9,23.224.456,10.5-22.312,18.313-41.491,23.015-26.545,6.508-62,11-99.839,12.649C175.625,98.788,165.72,99,155.974,99Zm57.874-57.7q-14.695,0-30.843.69c-37.677,1.64-72.957,6.108-99.345,12.578C58.589,60.711,43.793,68.358,44.086,75.02c.569,13.007,57.476,24.476,141.27,20.82,37.677-1.643,72.959-6.11,99.348-12.578,25.068-6.148,39.864-13.8,39.571-20.457C323.779,51.469,280.468,41.3,213.848,41.3Z" transform="translate(-41.559 -34.564)"/></g><g transform="translate(9.356 71.725)"><path class="h" d="M45.279,77.507c-.436-10.041,20.994-17.481,39.05-21.954,24.957-6.183,58.292-10.441,93.868-11.994,65.925-2.872,134.6,4.661,135.367,22.249l-2.52.111C310.5,53.565,257.022,42.637,178.3,46.076,142.893,47.621,109.732,51.856,84.936,58,61.4,63.83,47.521,71.079,47.8,77.4Z" transform="translate(-45.272 -42.964)"/></g><g transform="translate(47.933 34.395)"><path class="h" d="M62.72,68.571l-2.137-1.333c.159-.252,16.113-25.3,51.459-39.09l.915,2.348C78.379,43.984,62.871,68.327,62.72,68.571Z" transform="translate(-60.583 -28.148)"/></g><g transform="translate(103.434 30.837)"><path class="h" d="M85.1,61.863l-2.492-.391a70.38,70.38,0,0,1,18.21-34.736l1.812,1.751A68.873,68.873,0,0,0,85.1,61.863Z" transform="translate(-82.61 -26.736)"/></g><g transform="translate(153.422 28.769)"><path class="h" d="M126.346,60.177c-10.2-25.741-23.76-31.894-23.9-31.952l1.005-2.311c.595.26,14.657,6.634,25.232,33.335Z" transform="translate(-102.449 -25.915)"/></g><g transform="translate(179.918 30.437)"><path class="h" d="M165.891,63.392c-12.558-21.5-52.522-34.283-52.926-34.411l.758-2.4c1.678.529,41.292,13.2,54.342,35.545Z" transform="translate(-112.965 -26.577)"/></g><g class="o" transform="translate(36.386 101.746)"><path class="p" d="M127.482,54.878,56,397.86H277.731L196.493,54.878" transform="translate(-56 -54.878)"/></g><g transform="translate(88.369 86.372)"><ellipse class="n" cx="54.715" cy="8.511" rx="54.715" ry="8.511" transform="matrix(0.999, -0.044, 0.044, 0.999, 0.89, 4.767)"/><path class="h" d="M118.077,69.28a223.82,223.82,0,0,1-24.053-1.144C78.616,66.422,76.719,63.6,76.633,61.622c-.335-7.72,36.152-11.356,55.5-12.2a265.844,265.844,0,0,1,38.954.811c15.41,1.713,17.308,4.535,17.4,6.511.333,7.723-36.155,11.359-55.5,12.2C127.878,69.171,122.872,69.28,118.077,69.28Zm28.966-17.67c-4.76,0-9.731.111-14.806.333-35.061,1.529-53.2,7.045-53.084,9.572.028.635,2.87,2.751,15.151,4.117a263.79,263.79,0,0,0,38.569.8c35.061-1.529,53.2-7.045,53.087-9.575-.028-.632-2.87-2.749-15.153-4.115A221.1,221.1,0,0,0,147.043,51.609Z" transform="translate(-76.631 -48.299)"/></g></g></g><g transform="matrix(0.996, -0.087, 0.087, 0.996, 1297.75, 176.805)"><rect class="n" width="23.576" height="23.576" rx="11.788" transform="translate(0 0)"/><g transform="translate(2.346 4.286)"><g transform="translate(0 0)"><path class="a" d="M182.059,210.6v10.545a4.437,4.437,0,0,1-4.444,4.447h-.137a4.554,4.554,0,0,1-.909-.093c-.053-.011-.106-.026-.155-.04-.093-.022-.18-.043-.272-.07s-.17-.063-.255-.094l-.153-.057-.021-.006v0a4.421,4.421,0,0,1-2.677-3.91c0-.055,0-.114,0-.173h3.114c0,.045,0,.089.006.132a1.836,1.836,0,0,0,.051.269l.01.028a1.537,1.537,0,0,0,.087.205l.016.028a1.444,1.444,0,0,0,.1.159l.018.021c.031.041.06.079.084.108l.008.006a1.427,1.427,0,0,0,.954.379h.069v0h.068a1.292,1.292,0,0,0,1.333-1.333V210.6h3.111Z" transform="translate(-173.031 -210.601)"/><path class="a" d="M324.914,222.5h.54v3.1h-1.289a4.689,4.689,0,0,1-1.846-.374,4.631,4.631,0,0,1-2.8-4V210.6h3.259v3.125h1.084a5.384,5.384,0,0,0,1.7-.266s.447,2.307-1.3,3.043a1.761,1.761,0,0,1-.91.136h-.574v4.6a1.505,1.505,0,0,0,.388.866c.16.137.488.395,1.749.395" transform="translate(-309.113 -210.601)"/></g></g></g></g></svg>